<?xml version="1.0" encoding="utf-8"?>
<!-- Generator: Adobe Illustrator 23.0.1, SVG Export Plug-In . SVG Version: 6.00 Build 0)  -->
<svg version="1.1" id="Warstwa_1" xmlns:serif="http://www.serif.com/"
	 xmlns="http://www.w3.org/2000/svg" xmlns:xlink="http://www.w3.org/1999/xlink" x="0px" y="0px" viewBox="0 0 466.9 466.8"
	 style="enable-background:new 0 0 466.9 466.8;" xml:space="preserve">
<style type="text/css">
	.st0{fill-rule:evenodd;clip-rule:evenodd;fill:#EC5469;}
	.st1{opacity:0.2;}
	.st2{fill-rule:evenodd;clip-rule:evenodd;}
</style>
<path class="st0" d="M164.6,94.9c-6-17.4-12-34.4-14.9-41.3C142.1,35,126.5,41,121.6,29c-5.5-13.2,8.5-22.6,16.5-26
	c7.7-3.3,24.3-6.7,29.6,6.1c5.3,12.8-9.9,19.3-2.3,38c1.8,4.5,10.2,21.8,18.9,39.8c13.6-4.5,28.1-7.1,43-7.6
	c-2.6-9.7-11.7-11.2-11.6-19.6c0.1-10.8,12.5-13.2,19-13.2c6.3,0,18.7,2.5,18.7,12.9c-0.1,9-9.2,10.3-11.9,20.1
	c14.2,0.8,27.9,3.5,40.9,7.9c8.2-16.8,16.2-33.5,19.1-40.5c7.7-18.5-7.6-25.2-2.6-37.3c5.5-13.2,22-9.9,30.1-6.7
	c7.8,3.1,21.9,12.4,16.6,25.2c-5.3,12.8-20.6,6.6-28.5,25.3c-1.9,4.6-8.4,23.1-15,42.1c12.5,6.3,24.1,14.2,34.4,23.5
	c5.2-8.9-0.4-16.5,5.5-22.5c7.6-7.7,18.1-0.7,22.8,3.9c4.5,4.4,11.7,14.9,4.3,22.3c-6.3,6.4-13.8,0.8-22.7,6.2
	c9.9,10.7,18.3,22.7,24.9,35.8c17.6-6.1,35-12.2,41.9-15.1c18.5-7.7,12.5-23.2,24.5-28.2c13.2-5.5,22.6,8.5,26,16.5
	c3.3,7.7,6.7,24.3-6.1,29.6c-12.8,5.3-19.3-9.9-38-2.3c-4.6,1.9-22,10.3-40.1,19.1c4.8,14,7.6,28.9,8.2,44.4
	c9.6-2.6,11.1-11.8,19.4-11.7c10.7,0.1,13.1,12.6,13.1,19.1c0,6.3-2.5,18.9-12.9,18.8c-8.9-0.1-10.2-9.2-19.8-12
	c-0.8,13.8-3.3,27.1-7.4,39.7c16.5,8,32.6,15.7,39.5,18.6c18.5,7.7,25.2-7.6,37.3-2.6c13.2,5.5,9.9,22,6.7,30.1
	c-3.1,7.8-12.5,21.9-25.2,16.6c-12.8-5.3-6.6-20.6-25.3-28.5c-4.5-1.9-22.3-8.1-40.9-14.5c-6.4,13.2-14.7,25.3-24.4,36.1
	c8.5,4.4,15.8-0.8,21.6,5c7.6,7.6,0.6,18.2-3.9,22.9c-4.4,4.5-14.9,11.8-22.3,4.4c-6.2-6.1-1.1-13.4-5.6-22
	c-10.5,9.6-22.3,17.8-35.1,24.3c5.9,17,11.7,33.4,14.5,40.1c7.7,18.5,23.2,12.5,28.2,24.5c5.5,13.2-8.5,22.6-16.5,26
	c-7.7,3.3-24.3,6.7-29.6-6.1c-5.3-12.8,9.9-19.3,2.3-38c-1.8-4.4-9.8-20.9-18.2-38.3c-13.8,4.8-28.5,7.6-43.7,8.3
	c2.8,9.1,11.5,10.7,11.4,18.9c-0.1,10.8-12.5,13.2-19,13.2c-6.3,0-18.7-2.5-18.7-12.9c0.1-8.7,8.6-10.2,11.6-19.2
	c-14.5-0.7-28.6-3.4-41.8-7.9c-7.7,15.9-15,31.2-17.8,37.9c-7.7,18.5,7.6,25.2,2.6,37.3c-5.5,13.2-22,9.9-30.1,6.7
	c-7.8-3.1-21.9-12.4-16.6-25.2c5.3-12.8,20.6-6.6,28.5-25.3c1.8-4.3,7.8-21.3,14-39.3c-12.6-6.3-24.3-14.2-34.7-23.5
	c-3.7,8.2,1,15.1-4.6,20.8c-7.6,7.7-18.1,0.7-22.8-3.9c-4.5-4.4-11.7-14.9-4.3-22.3c5.9-6,12.9-1.5,21-5.3
	c-10-10.9-18.5-23.2-25.1-36.6c-16.8,5.8-32.9,11.5-39.6,14.3c-18.5,7.7-12.5,23.2-24.5,28.2c-13.2,5.5-22.6-8.5-26-16.5
	c-3.3-7.7-6.7-24.3,6.1-29.6c12.8-5.3,19.3,9.9,38,2.3c4.4-1.8,20.7-9.7,38-18.1c-4.4-13.3-7.1-27.5-7.8-42.2
	c-8.3,3.1-10.1,11.3-18,11.2c-10.7-0.1-13.1-12.6-13.1-19.1c0-6.3,2.5-18.9,12.9-18.8c8.4,0.1,10,8.2,18.4,11.5
	c0.8-14.9,3.7-29.2,8.4-42.7c-15.7-7.6-30.7-14.8-37.2-17.5c-18.5-7.7-25.2,7.6-37.3,2.6c-13.2-5.5-9.9-22-6.7-30.1
	c3.1-7.8,12.5-21.9,25.2-16.6c12.8,5.3,6.6,20.6,25.3,28.5c4.3,1.8,21,7.6,38.9,13.8c6.3-12.4,14.2-23.8,23.5-34
	c-8.5-4.5-15.9,0.8-21.7-5c-7.6-7.6-0.6-18.2,3.9-22.9c4.4-4.5,14.9-11.8,22.3-4.4c6.2,6.2,1,13.5,5.7,22.2
	C138.8,109.9,151.2,101.5,164.6,94.9z"/>
<g transform="matrix(3.52522,0,0,3.52522,-3269.79,-3330.1)">
	<g class="st1">
		<g id="circle833" transform="matrix(0.431746,0,0,0.431746,636.17,595.185)">
			<circle class="st2" cx="793.5" cy="912.8" r="11.2"/>
		</g>
		<g id="circle835" transform="matrix(0.431746,0,0,0.431746,817.472,581.312)">
			<circle class="st2" cx="408.3" cy="994.9" r="19.8"/>
		</g>
		<g id="circle837" transform="matrix(0.370944,0,0,0.370944,701.54,791.604)">
			<circle class="st2" cx="762" cy="661" r="12.6"/>
		</g>
		<g id="circle839" transform="matrix(0.187408,0,0,0.187408,1235.46,1065.38)">
			<circle class="st2" cx="-1157.5" cy="-342.5" r="20.7"/>
		</g>
		<g id="circle8391" transform="matrix(0.183259,0,0,0.183259,830.801,1185.47)" serif:id="circle839">
			<circle class="st2" cx="752.7" cy="-932.3" r="20.7"/>
		</g>
		<g id="circle841" transform="matrix(0.431746,0,0,0.431746,618.83,618.83)">
			<circle class="st2" cx="882.2" cy="841.3" r="5"/>
		</g>
		<g id="circle8411" transform="matrix(0.320652,0,0,0.320652,1000,822.788)" serif:id="circle841">
			<circle class="st2" cx="52.6" cy="510.1" r="5"/>
		</g>
		<g id="circle8412" transform="matrix(0.431746,0,0,0.431746,353.652,1040.56)" serif:id="circle841">
			<circle class="st2" cx="1422.7" cy="-18.3" r="5"/>
		</g>
		<g id="circle8413" transform="matrix(0.431746,0,0,0.431746,300.196,771.909)" serif:id="circle841">
			<circle class="st2" cx="1531.7" cy="529.3" r="5"/>
		</g>
		<g id="circle843" transform="matrix(0.226964,0,0,0.226964,1222.74,1217.1)">
			
				<ellipse transform="matrix(0.1602 -0.9871 0.9871 0.1602 65.5619 -1599.7281)" class="st2" cx="-907.3" cy="-838.4" rx="12.6" ry="12.6"/>
		</g>
		<g id="circle845" transform="matrix(0.33076,0,0,0.33076,834.516,979.057)">
			<circle class="st2" cx="511.5" cy="192.3" r="8.6"/>
		</g>
	</g>
</g>
</svg>
