<svg version="1.1" id="Warstwa_1" xmlns="http://www.w3.org/2000/svg" x="0" y="0" viewBox="0 0 466.9 466.8" xml:space="preserve"><style>.st2{fill-rule:evenodd;clip-rule:evenodd}</style><path d="M164.6 94.9c-6-17.4-12-34.4-14.9-41.3C142.1 35 126.5 41 121.6 29c-5.5-13.2 8.5-22.6 16.5-26 7.7-3.3 24.3-6.7 29.6 6.1 5.3 12.8-9.9 19.3-2.3 38 1.8 4.5 10.2 21.8 18.9 39.8 13.6-4.5 28.1-7.1 43-7.6-2.6-9.7-11.7-11.2-11.6-19.6.1-10.8 12.5-13.2 19-13.2 6.3 0 18.7 2.5 18.7 12.9-.1 9-9.2 10.3-11.9 20.1 14.2.8 27.9 3.5 40.9 7.9 8.2-16.8 16.2-33.5 19.1-40.5 7.7-18.5-7.6-25.2-2.6-37.3 5.5-13.2 22-9.9 30.1-6.7 7.8 3.1 21.9 12.4 16.6 25.2-5.3 12.8-20.6 6.6-28.5 25.3-1.9 4.6-8.4 23.1-15 42.1 12.5 6.3 24.1 14.2 34.4 23.5 5.2-8.9-.4-16.5 5.5-22.5 7.6-7.7 18.1-.7 22.8 3.9 4.5 4.4 11.7 14.9 4.3 22.3-6.3 6.4-13.8.8-22.7 6.2 9.9 10.7 18.3 22.7 24.9 35.8 17.6-6.1 35-12.2 41.9-15.1 18.5-7.7 12.5-23.2 24.5-28.2 13.2-5.5 22.6 8.5 26 16.5 3.3 7.7 6.7 24.3-6.1 29.6-12.8 5.3-19.3-9.9-38-2.3-4.6 1.9-22 10.3-40.1 19.1 4.8 14 7.6 28.9 8.2 44.4 9.6-2.6 11.1-11.8 19.4-11.7 10.7.1 13.1 12.6 13.1 19.1 0 6.3-2.5 18.9-12.9 18.8-8.9-.1-10.2-9.2-19.8-12-.8 13.8-3.3 27.1-7.4 39.7 16.5 8 32.6 15.7 39.5 18.6 18.5 7.7 25.2-7.6 37.3-2.6 13.2 5.5 9.9 22 6.7 30.1-3.1 7.8-12.5 21.9-25.2 16.6-12.8-5.3-6.6-20.6-25.3-28.5-4.5-1.9-22.3-8.1-40.9-14.5-6.4 13.2-14.7 25.3-24.4 36.1 8.5 4.4 15.8-.8 21.6 5 7.6 7.6.6 18.2-3.9 22.9-4.4 4.5-14.9 11.8-22.3 4.4-6.2-6.1-1.1-13.4-5.6-22-10.5 9.6-22.3 17.8-35.1 24.3 5.9 17 11.7 33.4 14.5 40.1 7.7 18.5 23.2 12.5 28.2 24.5 5.5 13.2-8.5 22.6-16.5 26-7.7 3.3-24.3 6.7-29.6-6.1-5.3-12.8 9.9-19.3 2.3-38-1.8-4.4-9.8-20.9-18.2-38.3-13.8 4.8-28.5 7.6-43.7 8.3 2.8 9.1 11.5 10.7 11.4 18.9-.1 10.8-12.5 13.2-19 13.2-6.3 0-18.7-2.5-18.7-12.9.1-8.7 8.6-10.2 11.6-19.2-14.5-.7-28.6-3.4-41.8-7.9-7.7 15.9-15 31.2-17.8 37.9-7.7 18.5 7.6 25.2 2.6 37.3-5.5 13.2-22 9.9-30.1 6.7-7.8-3.1-21.9-12.4-16.6-25.2 5.3-12.8 20.6-6.6 28.5-25.3 1.8-4.3 7.8-21.3 14-39.3-12.6-6.3-24.3-14.2-34.7-23.5-3.7 8.2 1 15.1-4.6 20.8-7.6 7.7-18.1.7-22.8-3.9-4.5-4.4-11.7-14.9-4.3-22.3 5.9-6 12.9-1.5 21-5.3-10-10.9-18.5-23.2-25.1-36.6-16.8 5.8-32.9 11.5-39.6 14.3C35 324.9 41 340.4 29 345.4c-13.2 5.5-22.6-8.5-26-16.5-3.3-7.7-6.7-24.3 6.1-29.6 12.8-5.3 19.3 9.9 38 2.3 4.4-1.8 20.7-9.7 38-18.1-4.4-13.3-7.1-27.5-7.8-42.2-8.3 3.1-10.1 11.3-18 11.2-10.7-.1-13.1-12.6-13.1-19.1 0-6.3 2.5-18.9 12.9-18.8 8.4.1 10 8.2 18.4 11.5.8-14.9 3.7-29.2 8.4-42.7-15.7-7.6-30.7-14.8-37.2-17.5-18.5-7.7-25.2 7.6-37.3 2.6-13.2-5.5-9.9-22-6.7-30.1 3.1-7.8 12.5-21.9 25.2-16.6 12.8 5.3 6.6 20.6 25.3 28.5 4.3 1.8 21 7.6 38.9 13.8 6.3-12.4 14.2-23.8 23.5-34-8.5-4.5-15.9.8-21.7-5-7.6-7.6-.6-18.2 3.9-22.9 4.4-4.5 14.9-11.8 22.3-4.4 6.2 6.2 1 13.5 5.7 22.2 11-10.1 23.4-18.5 36.8-25.1z" fill-rule="evenodd" clip-rule="evenodd" fill="#ec5469"/><g opacity=".2" transform="translate(-3269.79 -3330.1) scale(3.52522)"><circle class="st2" cx="793.5" cy="912.8" r="11.2" id="circle833" transform="translate(636.17 595.185) scale(.43175)"/><circle class="st2" cx="408.3" cy="994.9" r="19.8" id="circle835" transform="translate(817.472 581.312) scale(.43175)"/><circle class="st2" cx="762" cy="661" r="12.6" id="circle837" transform="translate(701.54 791.604) scale(.37094)"/><circle class="st2" cx="-1157.5" cy="-342.5" r="20.7" id="circle839" transform="translate(1235.46 1065.38) scale(.1874)"/><circle class="st2" cx="752.7" cy="-932.3" r="20.7" id="circle8391" transform="translate(830.801 1185.47) scale(.18326)"/><circle class="st2" cx="882.2" cy="841.3" r="5" id="circle841" transform="translate(618.83 618.83) scale(.43175)"/><circle class="st2" cx="52.6" cy="510.1" r="5" id="circle8411" transform="translate(1000 822.788) scale(.32065)"/><circle class="st2" cx="1422.7" cy="-18.3" r="5" id="circle8412" transform="translate(353.652 1040.56) scale(.43175)"/><circle class="st2" cx="1531.7" cy="529.3" r="5" id="circle8413" transform="translate(300.196 771.909) scale(.43175)"/><circle transform="rotate(-80.782 1120.703 -300.328) scale(.22697)" class="st2" cx="-907.3" cy="-838.4" r="12.6" id="circle843"/><circle class="st2" cx="511.5" cy="192.3" r="8.6" id="circle845" transform="translate(834.516 979.057) scale(.33076)"/></g></svg>